<svg width="960" height="640" viewBox="0 0 960 640" fill="none" xmlns="http://www.w3.org/2000/svg" role="img" aria-labelledby="title desc">
  <title id="title">Granular knowledge system interface</title>
  <desc id="desc">A layered product documentation interface with a receipt intelligence dashboard.</desc>
  <rect width="960" height="640" rx="44" fill="#F6F4ED"/>
  <rect x="58" y="58" width="844" height="524" rx="28" fill="#FEFEFC" stroke="#DED9C9" stroke-width="2"/>
  <rect x="58" y="58" width="844" height="58" rx="28" fill="#151A1D"/>
  <circle cx="96" cy="87" r="8" fill="#E06A4F"/>
  <circle cx="122" cy="87" r="8" fill="#C9A23A"/>
  <circle cx="148" cy="87" r="8" fill="#4BA37E"/>
  <rect x="84" y="150" width="178" height="380" rx="18" fill="#F4F2EB" stroke="#E4DFD1"/>
  <rect x="108" y="180" width="94" height="13" rx="6.5" fill="#222A2E"/>
  <rect x="108" y="224" width="126" height="32" rx="10" fill="#E7F0EA"/>
  <rect x="108" y="272" width="98" height="10" rx="5" fill="#B9C4BD"/>
  <rect x="108" y="302" width="120" height="10" rx="5" fill="#B9C4BD"/>
  <rect x="108" y="332" width="86" height="10" rx="5" fill="#B9C4BD"/>
  <rect x="108" y="388" width="126" height="32" rx="10" fill="#FEFEFC"/>
  <rect x="108" y="440" width="102" height="10" rx="5" fill="#B9C4BD"/>
  <rect x="306" y="150" width="520" height="58" rx="18" fill="#F8F7F2" stroke="#E4DFD1"/>
  <rect x="336" y="172" width="210" height="14" rx="7" fill="#87928D"/>
  <rect x="306" y="244" width="314" height="286" rx="24" fill="#173F35"/>
  <rect x="338" y="278" width="108" height="14" rx="7" fill="#8BB99E"/>
  <rect x="338" y="320" width="220" height="24" rx="12" fill="#FFFFFF"/>
  <rect x="338" y="362" width="164" height="14" rx="7" fill="#B9D3C3"/>
  <rect x="338" y="398" width="230" height="1" fill="#426B60"/>
  <rect x="338" y="424" width="182" height="12" rx="6" fill="#DDE9E2"/>
  <rect x="338" y="456" width="210" height="12" rx="6" fill="#DDE9E2"/>
  <rect x="650" y="244" width="176" height="128" rx="24" fill="#F6C767"/>
  <rect x="680" y="276" width="72" height="12" rx="6" fill="#765A15"/>
  <rect x="680" y="314" width="96" height="28" rx="14" fill="#171C20"/>
  <rect x="650" y="402" width="176" height="128" rx="24" fill="#E8EFEA"/>
  <rect x="680" y="434" width="86" height="12" rx="6" fill="#5E766B"/>
  <rect x="680" y="472" width="108" height="28" rx="14" fill="#1F6F55"/>
</svg>
